<svg width="48" height="76" viewBox="0 0 48 76" fill="none" xmlns="http://www.w3.org/2000/svg">
<path d="M46.6697 16.1143C45.9528 10.523 40.266 1.31709 29.2268 0.869726C25.2695 0.709356 22.7691 1.2537 19.3823 3.30695C14.5223 6.25333 12.6014 10.5695 11.3539 16.1143C10.9238 18.0258 10.9238 23.2348 11.3539 25.9588C11.5402 27.1389 12.0264 31.2411 10.9238 34.5129C8.00863 43.1627 1 43.1659 1 56.7727C1 60.6119 3.6121 66.6922 7.57855 69.8765C14.6991 75.593 25.2455 75.3244 32.572 69.8765C44.0143 61.3682 45.8572 37.2847 45.8572 37.2847C45.8572 37.2847 47.6602 23.8406 46.6697 16.1143Z" fill="#D2BFBA" stroke="#491F47" stroke-width="1.43366"/>
<path d="M18.4515 30.8801C18.4515 30.8801 17.0336 27.866 16.3844 27.866C15.7352 27.866 14.8435 30.1936 14.1744 30.351C13.5054 30.5084 12.7886 30.1121 12.7886 30.1121" stroke="#491F47" stroke-width="1.72039" stroke-linecap="round" stroke-linejoin="round"/>
<path d="M18.325 31.1127C18.325 31.1127 17.3961 29.213 16.3812 29.213C15.3663 29.2129 14.5257 30.4058 14.5257 30.4058" stroke="#491F47" stroke-width="1.32534" stroke-linecap="round" stroke-linejoin="round"/>
<path d="M30.1579 31.0089C30.1579 31.0089 31.7169 28.67 32.8592 28.6746C34.0014 28.6792 35.392 30.8251 35.392 30.8251" stroke="#491F47" stroke-width="1.43366" stroke-linecap="round" stroke-linejoin="round"/>
<path d="M29.9782 30.924C29.9782 30.924 31.9403 27.4168 33.146 27.4168C34.3518 27.4168 35.2064 30.5047 35.5888 30.7914C35.9711 31.0782 37.3482 30.5692 37.3482 30.5692" stroke="#491F47" stroke-width="1.72039" stroke-linecap="round" stroke-linejoin="round"/>
<path d="M13.3994 22.7425C17.4948 22.7425 20.6591 25.5369 20.6592 28.807C20.6592 32.0771 17.4948 34.8714 13.3994 34.8714C9.30422 34.8712 6.14062 32.077 6.14062 28.807C6.14069 25.537 9.30426 22.7427 13.3994 22.7425Z" stroke="#491F47" stroke-width="1.06027"/>
<path d="M33.5195 23.2383C38.5808 23.2383 42.4521 26.4307 42.4521 30.1152C42.4521 33.7998 38.5808 36.9922 33.5195 36.9922C28.4584 36.9921 24.5879 33.7998 24.5879 30.1152C24.5879 26.4307 28.4584 23.2384 33.5195 23.2383Z" stroke="#491F47" stroke-width="1.06027"/>
<path d="M20.8066 29.375C20.8066 29.375 21.4828 28.5022 22.0491 28.3715C23.2917 28.0847 24.4386 30.6175 24.4386 30.6175" stroke="#491F47" stroke-width="1.06027" stroke-linecap="round" stroke-linejoin="round"/>
<path d="M43.4912 26.7065C43.5865 26.6964 43.6852 26.7076 43.7793 26.7485L46.6533 28.0005C46.9436 28.1269 47.0776 28.465 46.9512 28.7553C46.8246 29.0455 46.4856 29.1777 46.1953 29.0512L43.4502 27.8549H42.5205C42.2034 27.8549 41.9465 27.5978 41.9463 27.2807C41.9463 26.9635 42.2033 26.7065 42.5205 26.7065H43.4912Z" fill="#491F47"/>
<path d="M43.4912 26.7065V27.0888H43.5114L43.5315 27.0867L43.4912 26.7065ZM43.7793 26.7485L43.932 26.398L43.9317 26.3979L43.7793 26.7485ZM46.6533 28.0005L46.806 27.65L46.806 27.65L46.6533 28.0005ZM46.9512 28.7553L47.3016 28.9082L47.3017 28.9079L46.9512 28.7553ZM46.1953 29.0512L46.0426 29.4017L46.0426 29.4017L46.1953 29.0512ZM43.4502 27.8549L43.6029 27.5045L43.5299 27.4726H43.4502V27.8549ZM42.5205 27.8549V27.4726L42.5205 27.4726L42.5205 27.8549ZM41.9463 27.2807L41.564 27.2807L41.564 27.2809L41.9463 27.2807ZM42.5205 26.7065V26.3242H42.5205L42.5205 26.7065ZM43.4912 26.7065L43.5315 27.0867C43.5695 27.0827 43.6007 27.0877 43.6269 27.0991L43.7793 26.7485L43.9317 26.3979C43.7696 26.3275 43.6035 26.3102 43.451 26.3263L43.4912 26.7065ZM43.7793 26.7485L43.6266 27.099L46.5006 28.3509L46.6533 28.0005L46.806 27.65L43.932 26.398L43.7793 26.7485ZM46.6533 28.0005L46.5006 28.3509C46.5985 28.3936 46.6423 28.507 46.6006 28.6027L46.9512 28.7553L47.3017 28.9079C47.5128 28.423 47.2888 27.8603 46.806 27.65L46.6533 28.0005ZM46.9512 28.7553L46.6007 28.6025C46.559 28.6982 46.4458 28.7434 46.348 28.7007L46.1953 29.0512L46.0426 29.4017C46.5254 29.6121 47.0902 29.3929 47.3016 28.9082L46.9512 28.7553ZM46.1953 29.0512L46.348 28.7008L43.6029 27.5045L43.4502 27.8549L43.2975 28.2054L46.0426 29.4017L46.1953 29.0512ZM43.4502 27.8549V27.4726H42.5205V27.8549V28.2373H43.4502V27.8549ZM42.5205 27.8549L42.5205 27.4726C42.4148 27.4726 42.3287 27.3868 42.3286 27.2805L41.9463 27.2807L41.564 27.2809C41.5643 27.8088 41.9921 28.2373 42.5205 28.2373L42.5205 27.8549ZM41.9463 27.2807L42.3286 27.2807C42.3286 27.1747 42.4145 27.0888 42.5205 27.0888L42.5205 26.7065L42.5205 26.3242C41.9922 26.3242 41.564 26.7524 41.564 27.2807L41.9463 27.2807ZM42.5205 26.7065V27.0888H43.4912V26.7065V26.3242H42.5205V26.7065Z" fill="#491F47"/>
<path d="M6.59375 26.4776L10.8682 26.9551C11.1827 26.9905 11.4092 27.2743 11.374 27.5889C11.3387 27.9033 11.0556 28.1295 10.7412 28.0948L6.4668 27.6172C6.36831 27.6062 6.28 27.5687 6.2041 27.5157C6.1103 27.6019 5.98696 27.6563 5.84961 27.6563H4.41602C4.12592 27.6561 3.89078 27.421 3.89062 27.1309C3.89082 26.8408 4.12594 26.6047 4.41602 26.6045H5.84961C5.94021 26.6046 6.02413 26.6305 6.09863 26.671C6.21797 26.5344 6.39987 26.4561 6.59375 26.4776Z" fill="#491F47"/>
<path d="M6.59375 26.4776L6.6362 26.0976L6.63579 26.0976L6.59375 26.4776ZM10.8682 26.9551L10.9109 26.5752L10.9106 26.5752L10.8682 26.9551ZM11.374 27.5889L11.7539 27.6316L11.754 27.6314L11.374 27.5889ZM10.7412 28.0948L10.6988 28.4747L10.6992 28.4748L10.7412 28.0948ZM6.4668 27.6172L6.42418 27.9972L6.42435 27.9972L6.4668 27.6172ZM6.2041 27.5157L6.42313 27.2023L6.17138 27.0264L5.94531 27.2343L6.2041 27.5157ZM5.84961 27.6563V28.0386H5.84965L5.84961 27.6563ZM4.41602 27.6563L4.41581 28.0386H4.41602V27.6563ZM3.89062 27.1309L3.50832 27.1307L3.50832 27.1311L3.89062 27.1309ZM4.41602 26.6045V26.2222L4.41581 26.2222L4.41602 26.6045ZM5.84961 26.6045L5.84965 26.2222H5.84961V26.6045ZM6.09863 26.671L5.91617 27.0069L6.18507 27.153L6.38647 26.9226L6.09863 26.671ZM6.59375 26.4776L6.5513 26.8575L10.8257 27.3351L10.8682 26.9551L10.9106 26.5752L6.6362 26.0976L6.59375 26.4776ZM10.8682 26.9551L10.8254 27.335C10.9301 27.3468 11.0058 27.4415 10.9941 27.5465L11.374 27.5889L11.754 27.6314C11.8125 27.1071 11.4352 26.6342 10.9109 26.5752L10.8682 26.9551ZM11.374 27.5889L10.9941 27.5463C10.9823 27.651 10.8881 27.7264 10.7832 27.7148L10.7412 28.0948L10.6992 28.4748C11.2231 28.5327 11.6951 28.1556 11.7539 27.6316L11.374 27.5889ZM10.7412 28.0948L10.7837 27.7148L6.50924 27.2373L6.4668 27.6172L6.42435 27.9972L10.6988 28.4747L10.7412 28.0948ZM6.4668 27.6172L6.50942 27.2373C6.48259 27.2343 6.45393 27.2239 6.42313 27.2023L6.2041 27.5157L5.98508 27.829C6.10607 27.9136 6.25403 27.9781 6.42418 27.9972L6.4668 27.6172ZM6.2041 27.5157L5.94531 27.2343C5.91567 27.2615 5.88272 27.274 5.84957 27.274L5.84961 27.6563L5.84965 28.0386C6.0912 28.0386 6.30494 27.9423 6.4629 27.7971L6.2041 27.5157ZM5.84961 27.6563V27.274H4.41602V27.6563V28.0386H5.84961V27.6563ZM4.41602 27.6563L4.41622 27.274C4.33711 27.274 4.27298 27.2098 4.27293 27.1307L3.89062 27.1309L3.50832 27.1311C3.50858 27.6322 3.91473 28.0383 4.41581 28.0386L4.41602 27.6563ZM3.89062 27.1309L4.27293 27.1312C4.27299 27.0511 4.33811 26.9869 4.41622 26.9869L4.41602 26.6045L4.41581 26.2222C3.91378 26.2225 3.50865 26.6306 3.50832 27.1307L3.89062 27.1309ZM4.41602 26.6045V26.9869H5.84961V26.6045V26.2222H4.41602V26.6045ZM5.84961 26.6045L5.84957 26.9869C5.86552 26.9869 5.88719 26.9912 5.91617 27.0069L6.09863 26.671L6.28109 26.335C6.16107 26.2698 6.01491 26.2223 5.84965 26.2222L5.84961 26.6045ZM6.09863 26.671L6.38647 26.9226C6.42747 26.8757 6.48809 26.8505 6.55171 26.8576L6.59375 26.4776L6.63579 26.0976C6.31165 26.0617 6.00847 26.1932 5.8108 26.4193L6.09863 26.671Z" fill="#491F47"/>
<path d="M22.7793 71.4158C22.7753 71.4043 22.7787 71.3771 22.7782 71.3385C22.9369 71.3477 23.0605 71.3305 23.1644 71.2941C23.3146 71.2416 23.3943 71.136 23.4232 70.9963C23.4475 70.8063 23.5081 70.9796 22.2811 67.5076C21.417 65.0362 21.3981 64.5374 20.5564 64.1318L22.4734 63.4615L24.9245 70.4714L24.9129 70.4754C25.0761 71.0534 24.8034 71.719 24.226 71.9209C23.6717 72.1147 23.0286 71.7952 22.7793 71.4158Z" fill="#491F47"/>
<path d="M28.822 70.2118C27.2852 70.7954 26.085 68.8566 27.1081 67.5725C28.013 66.4177 28.9935 65.0738 27.5454 64.3477C27.1731 64.1623 26.7876 64.2114 26.4886 64.4243C25.9903 64.7791 25.7644 65.6007 26.4087 66.4636C26.4229 66.4835 26.43 66.4935 26.4442 66.5134L25.6868 67.0527C25.3958 66.644 25.2309 65.6952 25.737 64.9294C25.9636 64.5728 26.2756 64.2306 26.6543 63.9609C27.5513 63.3223 28.7817 63.1522 29.7935 64.5944C30.8053 66.0366 31.3033 66.7783 31.3942 66.8637C31.566 67.0418 31.7579 67.1004 31.9572 66.9585C32.037 66.9017 32.1153 66.8009 32.1994 66.6659C32.2307 66.6887 32.2648 66.6944 32.269 66.7215C32.49 67.285 32.2602 67.8691 31.8416 68.1671C31.4928 68.4155 31.0191 68.4674 30.5688 68.1723C30.37 68.8845 30.0249 69.4756 29.4668 69.8729C29.2774 70.0077 29.0639 70.1297 28.822 70.2118ZM28.4867 65.3745C28.5416 66.7171 27.1521 67.6764 28.1812 68.911C28.6397 69.4706 29.2685 69.3834 29.7169 69.0641C30.1255 68.7732 30.4093 68.2858 30.3032 67.9258C30.2506 67.8731 28.5364 65.4443 28.4867 65.3745Z" fill="#491F47"/>
<path d="M34.5206 65.5102L31.3695 59.0357L31.2231 59.2615C30.5311 60.3292 29.8362 61.1763 30.3675 62.3809L29.1105 62.0034L32.065 57.4454L35.2095 63.9302L35.3625 63.6941C36.0479 62.6367 36.7428 61.7896 36.2115 60.585L37.4751 60.9522L34.5206 65.5102Z" fill="#491F47"/>
<path d="M38.0745 59.5165L34.2757 53.3994L34.1532 53.6391C33.5744 54.7721 32.9701 55.686 33.6222 56.8297L32.3331 56.5833L34.8043 51.7462L38.5976 57.8742L38.7256 57.6236C39.2989 56.5015 39.9032 55.5875 39.251 54.4438L40.5457 54.6794L38.0745 59.5165Z" fill="#491F47"/>
<path d="M35.1856 50.9981L36.1754 48.922C37.1649 49.7461 37.3616 49.7315 41.9186 49.9525C38.7449 46.4606 38.8649 46.4364 37.4232 46.3048L37.9708 45.1563C44.5968 52.4085 44.0283 52.151 45.6509 52.3011L45.098 53.4606C44.9861 53.3259 43.7848 52.0078 42.5111 50.6144L42.1478 51.3764C39.4527 51.2299 35.3444 51.006 35.1856 50.9981Z" fill="#491F47"/>
<path d="M22.3626 11.5714C24.1145 10.9792 25.1918 13.1897 25.1918 13.1897C25.1918 13.1897 27.1204 11.2192 28.5341 12.3292C29.3217 12.9476 29.1775 14.0194 28.7942 14.9445C28.0177 16.8189 24.6672 18.3127 24.6672 18.3127C24.6672 18.3127 21.6048 15.9023 21.3185 14.0266C21.1623 13.0032 21.3819 11.903 22.3626 11.5714Z" fill="#FFEAA2"/>
<path d="M25.1918 13.1897L24.7153 13.422L25.0447 14.0979L25.5707 13.5605L25.1918 13.1897ZM22.3626 11.5714L22.5324 12.0737L22.5324 12.0737L22.3626 11.5714ZM21.3185 14.0266L20.7944 14.1066L21.3185 14.0266ZM24.6672 18.3127L24.3393 18.7293C24.4939 18.851 24.7033 18.877 24.883 18.7969L24.6672 18.3127ZM28.7942 14.9445L28.3045 14.7415L28.3045 14.7415L28.7942 14.9445ZM28.5341 12.3292L28.8615 11.9123L28.8615 11.9123L28.5341 12.3292ZM25.1918 13.1897C25.6684 12.9574 25.6683 12.9573 25.6682 12.9571C25.6682 12.957 25.6681 12.9568 25.668 12.9566C25.6678 12.9563 25.6677 12.956 25.6675 12.9556C25.6671 12.9549 25.6667 12.954 25.6662 12.953C25.6652 12.951 25.6639 12.9485 25.6624 12.9454C25.6593 12.9393 25.6552 12.9311 25.65 12.921C25.6395 12.9009 25.6247 12.873 25.6057 12.8388C25.5678 12.7704 25.5126 12.6757 25.4409 12.5652C25.2987 12.3459 25.0855 12.0545 24.8052 11.7799C24.2508 11.2365 23.3416 10.6809 22.1928 11.0692L22.3626 11.5714L22.5324 12.0737C23.1355 11.8698 23.6409 12.1233 24.0631 12.5371C24.2712 12.7411 24.4368 12.9653 24.5513 13.142C24.608 13.2294 24.6507 13.3028 24.6785 13.353C24.6924 13.378 24.7025 13.3971 24.7087 13.409C24.7117 13.415 24.7139 13.4191 24.715 13.4214C24.7155 13.4225 24.7158 13.4231 24.7159 13.4232C24.7159 13.4232 24.7159 13.4232 24.7158 13.423C24.7157 13.4229 24.7157 13.4227 24.7156 13.4226C24.7155 13.4225 24.7155 13.4223 24.7154 13.4223C24.7154 13.4221 24.7153 13.422 25.1918 13.1897ZM22.3626 11.5714L22.1928 11.0692C21.5216 11.2961 21.1167 11.7937 20.9147 12.362C20.7184 12.9141 20.7078 13.5392 20.7944 14.1066L21.3185 14.0266L21.8425 13.9466C21.7729 13.4905 21.794 13.0538 21.9137 12.7171C22.0276 12.3966 22.2229 12.1783 22.5324 12.0737L22.3626 11.5714ZM21.3185 14.0266L20.7944 14.1066C20.883 14.6867 21.176 15.265 21.5218 15.7822C21.8723 16.3065 22.3043 16.8083 22.7173 17.2396C23.1316 17.6724 23.5353 18.0433 23.835 18.3056C23.9851 18.437 24.1098 18.5419 24.1976 18.6143C24.2415 18.6505 24.2762 18.6787 24.3003 18.6981C24.3123 18.7078 24.3217 18.7153 24.3283 18.7205C24.3315 18.7231 24.3341 18.7252 24.336 18.7266C24.3369 18.7274 24.3376 18.7279 24.3382 18.7284C24.3385 18.7286 24.3387 18.7288 24.3389 18.7289C24.339 18.729 24.3391 18.7291 24.3391 18.7291C24.3392 18.7292 24.3393 18.7293 24.6672 18.3127C24.9951 17.8961 24.9951 17.8961 24.9952 17.8962C24.9952 17.8962 24.9952 17.8962 24.9952 17.8962C24.9952 17.8962 24.9951 17.8962 24.995 17.8961C24.9948 17.8959 24.9945 17.8956 24.9939 17.8952C24.9928 17.8943 24.991 17.8929 24.9885 17.8909C24.9834 17.8869 24.9756 17.8806 24.9651 17.8722C24.9442 17.8554 24.9129 17.8299 24.8725 17.7966C24.7917 17.7299 24.6749 17.6317 24.5334 17.5079C24.2499 17.2597 23.8702 16.9107 23.4831 16.5064C23.0947 16.1007 22.7075 15.6482 22.4033 15.193C22.0943 14.7307 21.8972 14.3043 21.8425 13.9466L21.3185 14.0266ZM24.6672 18.3127C24.883 18.7969 24.8831 18.7968 24.8833 18.7968C24.8833 18.7967 24.8834 18.7967 24.8836 18.7966C24.8838 18.7965 24.8841 18.7964 24.8844 18.7963C24.885 18.796 24.8859 18.7956 24.8869 18.7951C24.889 18.7942 24.8919 18.7929 24.8956 18.7912C24.903 18.7879 24.9135 18.7831 24.9269 18.7769C24.9537 18.7645 24.9923 18.7465 25.0412 18.7232C25.139 18.6764 25.2782 18.6082 25.447 18.5205C25.7841 18.3456 26.2429 18.0916 26.7285 17.7759C27.2126 17.4611 27.7329 17.0787 28.1876 16.6452C28.6385 16.2152 29.0505 15.7109 29.284 15.1474L28.7942 14.9445L28.3045 14.7415C28.1497 15.1152 27.8516 15.5005 27.4559 15.8778C27.064 16.2516 26.601 16.5941 26.1505 16.887C25.7014 17.1791 25.274 17.4157 24.9586 17.5795C24.8012 17.6611 24.6726 17.7242 24.5841 17.7665C24.5398 17.7876 24.5057 17.8036 24.4831 17.814C24.4718 17.8192 24.4633 17.823 24.458 17.8255C24.4553 17.8267 24.4534 17.8275 24.4523 17.828C24.4517 17.8283 24.4513 17.8285 24.4512 17.8285C24.4511 17.8286 24.4511 17.8286 24.4511 17.8286C24.4511 17.8286 24.4511 17.8286 24.4511 17.8285C24.4512 17.8285 24.4513 17.8285 24.6672 18.3127ZM28.7942 14.9445L29.284 15.1474C29.4907 14.6484 29.6509 14.0703 29.6331 13.5052C29.6148 12.9232 29.4043 12.3385 28.8615 11.9123L28.5341 12.3292L28.2067 12.7462C28.4515 12.9384 28.5627 13.1987 28.5734 13.5385C28.5846 13.8952 28.481 14.3155 28.3045 14.7415L28.7942 14.9445ZM28.5341 12.3292L28.8615 11.9123C27.8953 11.1536 26.7918 11.4949 26.082 11.8762C25.7123 12.0747 25.3977 12.3089 25.1779 12.4902C25.0671 12.5816 24.9782 12.6615 24.916 12.7194C24.8849 12.7484 24.8604 12.772 24.843 12.789C24.8344 12.7975 24.8275 12.8043 24.8224 12.8093C24.8199 12.8119 24.8179 12.8139 24.8163 12.8155C24.8155 12.8163 24.8148 12.817 24.8143 12.8176C24.814 12.8179 24.8137 12.8181 24.8135 12.8183C24.8134 12.8184 24.8133 12.8186 24.8132 12.8186C24.8131 12.8188 24.813 12.8189 25.1918 13.1897C25.5707 13.5605 25.5706 13.5606 25.5705 13.5607C25.5705 13.5608 25.5704 13.5609 25.5703 13.5609C25.5702 13.561 25.5702 13.5611 25.5701 13.5611C25.57 13.5612 25.5701 13.5612 25.5702 13.561C25.5705 13.5607 25.5712 13.56 25.5724 13.5588C25.5747 13.5565 25.5788 13.5524 25.5846 13.5467C25.5962 13.5354 25.6145 13.5178 25.6389 13.495C25.6877 13.4495 25.7605 13.3841 25.8526 13.3081C26.0386 13.1547 26.2945 12.9655 26.5837 12.8102C27.1916 12.4837 27.7592 12.3948 28.2067 12.7462L28.5341 12.3292Z" fill="#491F47"/>
<path d="M42.3052 27.0924L41.3105 26.2972L43.498 26.3414L42.3052 27.0924Z" fill="#491F47"/>
</svg>
