<svg width="46" height="45" viewBox="0 0 46 45" fill="none" xmlns="http://www.w3.org/2000/svg">
<rect x="1" y="0.5" width="44" height="44" rx="10" fill="#FFF4E0"/>
<rect x="1" y="0.5" width="44" height="44" rx="10" stroke="#442D1D" stroke-linecap="round" stroke-linejoin="round"/>
<path d="M15.598 31V17.9091H16.6293V31H15.598ZM16.1179 15.5909C15.8906 15.5909 15.6918 15.5114 15.5213 15.3523C15.3565 15.1932 15.2741 15 15.2741 14.7727C15.2741 14.5455 15.3565 14.3523 15.5213 14.1932C15.6861 14.0341 15.8849 13.9545 16.1179 13.9545C16.3452 13.9545 16.5412 14.0341 16.706 14.1932C16.8764 14.3523 16.9616 14.5455 16.9616 14.7727C16.9616 15 16.8793 15.1932 16.7145 15.3523C16.5497 15.5114 16.3509 15.5909 16.1179 15.5909ZM22.0241 22.5114V31H20.9844V17.9091H21.9986V19.9801H22.1009C22.4077 19.304 22.8991 18.7614 23.5753 18.3523C24.2514 17.9432 25.0554 17.7386 25.9872 17.7386C26.8679 17.7386 27.6406 17.9261 28.3054 18.3011C28.9759 18.6761 29.4986 19.2102 29.8736 19.9034C30.2543 20.5909 30.4446 21.4119 30.4446 22.3665V31H29.4048V22.4091C29.4048 21.2955 29.0724 20.4006 28.4077 19.7244C27.7486 19.0426 26.8764 18.7017 25.7912 18.7017C25.0639 18.7017 24.4162 18.8608 23.848 19.179C23.2798 19.4972 22.8338 19.9432 22.5099 20.517C22.1861 21.0852 22.0241 21.75 22.0241 22.5114Z" fill="#442D1D"/>
</svg>
