<svg width="46" height="45" viewBox="0 0 46 45" fill="none" xmlns="http://www.w3.org/2000/svg">
<rect x="1" y="0.5" width="44" height="44" rx="10" fill="#FFF4E0"/>
<rect x="1" y="0.5" width="44" height="44" rx="10" stroke="#442D1D" stroke-linecap="round" stroke-linejoin="round"/>
<g clip-path="url(#clip0_911_620)">
<path d="M29.833 12.0987C33.2671 12.2731 35.998 15.1125 35.998 18.5899V26.3897C35.998 29.9796 33.0879 32.8897 29.498 32.8897H16.498C12.9082 32.8897 9.99805 29.9796 9.99805 26.3897V18.5899C9.99809 15.1125 12.7289 12.2731 16.1631 12.0987L16.498 12.0899H29.498L29.833 12.0987ZM16.498 13.0899C13.4605 13.0899 10.9981 15.5524 10.998 18.5899V26.3897C10.998 29.4273 13.4605 31.8897 16.498 31.8897H29.498C32.5356 31.8897 34.998 29.4273 34.998 26.3897V18.5899C34.998 15.5524 32.5356 13.09 29.498 13.0899H16.498ZM28.4131 22.4874L20.2881 27.1778V17.796L28.4131 22.4874ZM21.2881 25.4454L26.4141 22.4864L21.2881 19.5284V25.4454Z" fill="#442D1D"/>
</g>
<defs>
<clipPath id="clip0_911_620">
<rect width="26" height="26" fill="white" transform="translate(10 9.5)"/>
</clipPath>
</defs>
</svg>
